<svg width="42" height="37" viewBox="0 0 42 37" fill="none" xmlns="http://www.w3.org/2000/svg">
    <path d="M6.57051 6.71926C7.32394 6.71926 7.93471 6.10848 7.93471 5.35505C7.93471 4.60162 7.32394 3.99084 6.57051 3.99084C5.81707 3.99084 5.2063 4.60162 5.2063 5.35505C5.2063 6.10848 5.81707 6.71926 6.57051 6.71926Z" fill="white"/>
    <path d="M11.0529 6.71926C11.8064 6.71926 12.4171 6.10848 12.4171 5.35505C12.4171 4.60162 11.8064 3.99084 11.0529 3.99084C10.2995 3.99084 9.68872 4.60162 9.68872 5.35505C9.68872 6.10848 10.2995 6.71926 11.0529 6.71926Z" fill="white"/>
    <path d="M15.6328 6.71926C16.3862 6.71926 16.997 6.10848 16.997 5.35505C16.997 4.60162 16.3862 3.99084 15.6328 3.99084C14.8793 3.99084 14.2686 4.60162 14.2686 5.35505C14.2686 6.10848 14.8793 6.71926 15.6328 6.71926Z" fill="white"/>
    <path d="M4.32941 24.0642C3.06265 24.0642 2.08821 23.0897 2.08821 21.823V10.7144H35.5113V16.8534L38.0448 18.4125V0.190552H-0.445312V21.823C-0.445312 24.454 1.69844 26.5977 4.32941 26.5977H23.4283L23.3309 24.0642H4.32941ZM35.5113 2.72408V7.79113H2.08821V2.72408H35.5113Z" fill="white"/>
    <path d="M41.6501 23.577L27.2285 14.5147C26.8387 14.2224 26.3515 14.2224 25.8643 14.5147C25.4745 14.7096 25.1822 15.1968 25.2796 15.684L26.0592 32.4443C26.0592 32.9315 26.3515 33.3213 26.7413 33.5162C27.1311 33.7111 27.6183 33.7111 28.008 33.5162L32.4904 30.9826L35.7061 36.6344L37.9473 35.3676L34.147 28.5466C33.9521 28.2542 33.6598 28.0593 33.3674 27.9619C33.0751 27.8645 32.6853 27.9619 32.393 28.0593L28.6901 30.2031L28.1055 17.9252L38.6294 24.5514L34.9265 26.5977L36.1933 28.8389L41.7476 25.7207C42.1373 25.5258 42.4297 25.136 42.4297 24.6488C42.2348 24.2591 42.0399 23.8693 41.6501 23.577Z" fill="white"/>
    <path d="M18.2639 13.5403H5.49878V16.0738H18.2639V13.5403Z" fill="white"/>
    <path d="M14.6585 18.315H5.49878V20.8485H14.6585V18.315Z" fill="white"/>
</svg>
