<svg width="71" height="74" viewBox="0 0 71 74" fill="none" xmlns="http://www.w3.org/2000/svg">
    <path d="M68.8706 39.3359C69.8251 38.3676 70.1678 37.4478 70.2412 37.2057H70.2167C70.7307 36.0922 70.9999 34.8819 70.9999 33.5505C70.9999 33.4537 70.9999 33.3568 70.9754 33.26L70.951 33.0664C70.2657 27.523 65.5421 25.4655 55.5811 26.3853C52.4239 26.6758 49.7807 26.9905 47.6514 27.2568C46.648 27.3778 45.7669 27.4746 44.9592 27.5714C47.7493 21.3019 49.4625 12.5633 49.5359 12.1275C51.4205 3.14684 46.6724 0.822993 45.155 0.314652C41.8265 -0.798858 37.2988 0.774579 35.194 6.87468C32.8445 13.6284 23.5442 31.735 15.4187 34.3977C14.1216 34.8093 12.7021 35.1724 11.0623 35.487H10.6218C10.6462 36.3827 11.0378 55.8449 16.153 66.6895L10.2547 68.7471C3.84239 59.016 4.50319 37.3994 4.50319 37.1573L0.0243933 37.0121C-8.10184e-05 38.053 -0.734311 62.526 7.68485 72.7896L8.6883 74L20.387 69.9574C22.7855 69.8122 25.135 69.7154 27.4356 69.667C32.6976 69.5459 36.5401 70.2479 41.4105 71.1436C43.1481 71.4583 45.0082 71.7971 47.064 72.136C48.5814 72.3781 50.466 72.5476 52.4973 72.5476C58.6159 72.5476 65.9093 70.9499 67.4022 65.0193C67.4267 64.8982 67.4511 64.753 67.4756 64.6077L67.5001 64.4141C67.5735 63.6879 67.7448 61.7514 67.7938 60.1537C67.7938 59.8874 67.8917 59.718 68.1854 59.2339C68.2098 59.1854 68.2588 59.137 68.2833 59.0886C68.6259 58.5077 69.0664 57.7572 69.2867 56.6921C69.6783 54.7556 69.3357 53.3758 69.0664 52.2865C68.8707 51.4877 68.7483 51.0278 68.8462 50.4468C68.8951 50.1321 68.9685 49.9627 69.1399 49.7206C69.3601 49.4785 69.507 49.2607 69.5804 49.1396C69.6049 49.1154 69.6049 49.0912 69.6049 49.067C69.9965 48.5103 70.437 47.7841 70.6817 46.6221C71.3426 43.4753 69.972 41.1272 69.1643 39.7232C69.0175 39.6022 68.9441 39.4569 68.8706 39.3359ZM62.9968 64.0994C61.6752 68.4566 52.0323 68.4324 47.7738 67.7546C45.7424 67.4157 43.9313 67.101 42.2181 66.7863C37.2988 65.8665 33.0402 65.0919 27.3133 65.2371C25.1106 65.2855 22.8589 65.3824 20.5583 65.5034C16.8382 58.3382 15.639 45.3876 15.2719 39.0696C15.8103 38.9244 16.3243 38.7792 16.8383 38.6097C28.1209 34.9061 37.9596 12.5633 39.428 8.30288C40.3825 5.54331 42.1447 3.99408 43.7111 4.52662C45.3264 5.05917 45.8893 7.64929 45.1061 11.2803C44.4208 14.7903 42.0468 24.7393 39.2078 28.7818C38.7428 29.4354 38.6693 30.3068 39.0365 31.033C39.4036 31.7592 40.1378 32.2191 40.9699 32.2675C42.7566 32.3402 45.0082 32.0497 48.1654 31.6866C50.2457 31.4445 52.8644 31.1298 55.9727 30.8393C66.0072 29.8953 66.3253 32.4128 66.4722 33.6231V33.6957C66.4477 34.8577 66.0806 35.7049 65.224 36.5521C64.2695 37.2541 62.2136 38.1014 58.0285 37.593C56.8048 37.4478 55.679 38.3192 55.5321 39.5296C55.3853 40.7399 56.2664 41.8534 57.4901 41.9987C58.567 42.1197 59.5459 42.1923 60.4515 42.1923C62.2626 42.1923 63.7555 41.9502 64.9792 41.5871C65.0527 41.7082 65.1261 41.8534 65.1995 41.9502C65.8848 43.1122 66.5456 44.2257 66.2274 45.7265C66.1295 46.2106 65.9827 46.4043 65.6645 46.8158C65.64 46.84 65.6156 46.8884 65.5911 46.9368C65.1261 47.3241 62.8744 48.8007 56.9027 48.0988C55.679 47.9535 54.5532 48.825 54.4063 50.0353C54.2595 51.2456 55.1406 52.3591 56.3643 52.5044C57.6859 52.6496 58.8607 52.7222 59.9375 52.7222C61.7242 52.7222 63.1926 52.5286 64.3919 52.2381C64.4653 52.6496 64.5632 53.0369 64.6366 53.3758C64.8569 54.2473 65.0282 54.8766 64.8324 55.8207C64.759 56.1838 64.5876 56.4743 64.3674 56.8616C63.8779 57.2973 61.7731 58.8223 56.8782 58.0235C55.6545 57.8299 54.5042 58.6529 54.3084 59.8632C54.1126 61.0736 54.9448 62.2113 56.1685 62.4049C57.3922 62.5986 58.518 62.6954 59.5215 62.6954C60.941 62.6954 62.1402 62.526 63.1681 62.2597C63.1192 63.0585 63.0458 63.7363 63.0213 64.051C62.9968 64.051 62.9968 64.0752 62.9968 64.0994Z" fill="white"/>
</svg>
