<svg width="74" height="71" viewBox="0 0 74 71" fill="none" xmlns="http://www.w3.org/2000/svg">
    <path d="M51.6347 61.0514C53.1449 61.0514 54.3674 59.8347 54.3674 58.3317V45.2339C54.3674 43.7309 53.1449 42.5141 51.6347 42.5141H38.4743C36.9641 42.5141 35.7416 43.7309 35.7416 45.2339V58.3317C35.7416 59.8347 36.9641 61.0514 38.4743 61.0514H51.6347ZM39.3373 53.5721H43.2566V57.4728H39.3373V53.5721ZM46.8524 57.4728V53.5721H50.7717V57.4728H46.8524ZM50.7717 49.9935H46.8524V46.0928H50.7717V49.9935ZM43.2566 46.0928V49.9935H39.3373V46.0928H43.2566Z" fill="white"/>
    <path d="M71.9145 65.5605H67.24C67.24 65.4889 67.276 65.4531 67.276 65.3816V47.8821C67.276 46.0927 66.3771 43.9098 65.0826 42.6573L48.0748 25.7661C47.2838 24.9788 46.2051 24.5136 45.0544 24.5136C43.9038 24.5136 42.8251 24.943 42.034 25.7661L38.69 29.0943L37.4674 28.0565L45.0544 20.5055L70.4762 45.8065C70.8717 46.2001 71.4111 46.4148 71.9145 46.4148C72.4538 46.4148 72.9572 46.2001 73.3528 45.8065C74.1438 45.0192 74.1438 43.7308 73.3528 42.9078L46.4927 16.1754C45.7017 15.3881 44.4072 15.3881 43.5802 16.1754L34.3392 25.4083L26.4645 18.6804C26.105 18.3584 25.6016 18.1794 25.1341 18.1794H5.7172C2.58892 18.1794 0 20.7203 0 23.8695V43.3014C0 46.4506 2.58892 48.9914 5.7172 48.9914H7.33528V67.3498C7.33528 69.6043 9.60058 70.9642 13.2323 70.9642C14.8503 70.9642 16.2167 70.6779 17.2235 70.1769C18.2303 70.6421 19.5248 70.8926 21.1069 70.8926C24.8465 70.8926 27.1477 69.497 27.1477 67.2067V34.5338L33.3324 39.5796C35.5617 41.7268 39.1574 41.691 41.3508 39.5081C42.4295 38.4345 43.0408 37.003 43.0408 35.4642C43.0408 34.1043 42.5374 32.8518 41.7104 31.8498L44.9106 28.6648C44.9465 28.629 44.9825 28.629 45.0544 28.629C45.0904 28.629 45.1623 28.629 45.1982 28.6648L62.1701 45.556C62.6375 46.0212 63.1409 47.2379 63.1409 47.9178V65.4173C63.1409 65.5247 63.069 65.5963 62.9611 65.5963H30.7794V69.6759H62.9611H71.9145C73.0651 69.6759 73.964 68.7455 73.964 67.6361C74 66.4909 73.0651 65.5605 71.9145 65.5605ZM38.4742 36.6094C37.827 37.2535 36.8202 37.2535 36.173 36.6094C36.137 36.5736 36.0651 36.502 36.0292 36.4662L26.4286 28.629C25.8173 28.128 24.9543 28.0207 24.2352 28.3785C23.516 28.7006 23.0486 29.4521 23.0486 30.2394V66.6341C22.1137 66.9562 20.1001 66.9562 19.1652 66.6341V46.379H15.0661V66.7414C14.2031 67.0277 12.3333 67.0277 11.4344 66.7414V47.0232V27.5554H7.37123V44.9476H5.75316C4.85423 44.9476 4.13508 44.2319 4.13508 43.3372V23.8695C4.13508 22.9748 4.85423 22.2591 5.75316 22.2591H24.379L38.5102 34.3548C38.7979 34.6411 38.9417 35.0348 38.9417 35.4642C38.9417 35.8937 38.7979 36.3231 38.4742 36.6094Z" fill="white"/>
    <path d="M17.2595 15.9249C21.6822 15.9249 25.278 12.3463 25.278 7.94456C25.278 3.57863 21.6822 0 17.2595 0C12.8367 0 9.27698 3.57863 9.27698 7.98034C9.27698 12.3463 12.8367 15.9249 17.2595 15.9249ZM17.2595 4.07964C19.4169 4.07964 21.1429 5.83317 21.1429 7.94456C21.1429 10.0917 19.381 11.8095 17.2595 11.8095C15.1021 11.8095 13.3761 10.0559 13.3761 7.94456C13.3761 5.83317 15.1021 4.07964 17.2595 4.07964Z" fill="white"/>
</svg>
