<svg width="29" height="29" viewBox="0 0 29 29" fill="none" xmlns="http://www.w3.org/2000/svg">
<path fill-rule="evenodd" clip-rule="evenodd" d="M14.5 0C6.49187 0 0 6.49187 0 14.5C0 22.5081 6.49187 29 14.5 29C22.5081 29 29 22.5081 29 14.5C29 6.49187 22.5081 0 14.5 0ZM20.5426 9.51522C21.2081 9.69783 21.7322 10.2359 21.9101 10.9192C22.2333 12.1577 22.2333 14.7417 22.2333 14.7417C22.2333 14.7417 22.2333 17.3256 21.9101 18.5641C21.7322 19.2474 21.2081 19.7855 20.5426 19.9682C19.3366 20.3 14.5 20.3 14.5 20.3C14.5 20.3 9.66342 20.3 8.45728 19.9682C7.79177 19.7855 7.26766 19.2474 7.0898 18.5641C6.76667 17.3256 6.76667 14.7417 6.76667 14.7417C6.76667 14.7417 6.76667 12.1577 7.0898 10.9192C7.26766 10.2359 7.79177 9.69783 8.45728 9.51522C9.66342 9.18333 14.5 9.18333 14.5 9.18333C14.5 9.18333 19.3366 9.18333 20.5426 9.51522Z" fill="#000FFF"/>
<path fill-rule="evenodd" clip-rule="evenodd" d="M13.05 17.4V12.5667L16.9167 14.9834L13.05 17.4Z" fill="#000FFF"/>
</svg>
