<svg width="69" height="68" viewBox="0 0 69 68" fill="none" xmlns="http://www.w3.org/2000/svg">
    <path d="M58.8092 0H10.1908C4.56462 0 0 4.5759 0 10.216V57.8195C0 63.4596 4.56462 68.0355 10.1908 68.0355H58.8092C64.4354 68.0355 69 63.4596 69 57.8195V10.216C69 4.5759 64.4354 0 58.8092 0ZM64.4354 57.8195C64.4354 60.9411 61.9231 63.4596 58.8092 63.4596H10.1908C7.07692 63.4596 4.56462 60.9411 4.56462 57.8195V10.216C4.56462 7.09442 7.07692 4.5759 10.1908 4.5759H58.8092C61.9231 4.5759 64.4354 7.09442 64.4354 10.216V57.8195Z" fill="white"/>
    <path d="M47.6277 44.1627C49.1715 44.1627 50.423 42.9081 50.423 41.3604C50.423 39.8128 49.1715 38.5582 47.6277 38.5582C46.0838 38.5582 44.8323 39.8128 44.8323 41.3604C44.8323 42.9081 46.0838 44.1627 47.6277 44.1627Z" fill="white"/>
    <path d="M40.1615 24.4757H55.0938C55.3415 24.4757 55.5185 24.2629 55.6246 23.8018C55.7662 23.3761 55.8369 22.7731 55.8369 21.9927C55.8369 21.2478 55.7662 20.6802 55.6246 20.2191C55.4831 19.758 55.3062 19.5451 55.0938 19.5451H40.1615C39.9138 19.5451 39.7369 19.758 39.6308 20.2191C39.4892 20.6802 39.4185 21.2833 39.4185 21.9927C39.4185 22.7731 39.4892 23.3761 39.6308 23.8018C39.7369 24.2629 39.9138 24.4757 40.1615 24.4757Z" fill="white"/>
    <path d="M29.6878 41.6088C29.4755 41.1831 29.1925 40.8284 28.9094 40.5446C28.6263 40.2608 28.2725 40.0125 27.8478 39.7642C27.3878 39.5159 27.1048 39.445 26.9278 39.6223L21.4078 45.156L15.994 39.7287C15.8171 39.5514 15.534 39.6223 15.1448 39.8352C14.7555 40.0835 14.3663 40.3672 14.0478 40.6865C13.7648 40.9703 13.4817 41.3605 13.2694 41.7507C13.0571 42.1763 12.9863 42.4601 13.1278 42.602L18.5417 48.0292L13.0925 53.4919C12.9155 53.6693 12.9863 53.9531 13.1986 54.3787C13.4463 54.8044 13.7294 55.1946 14.0125 55.4784C14.2955 55.7621 14.6848 56.0459 15.074 56.2587C15.4986 56.4716 15.7817 56.507 15.9586 56.3652L21.4078 50.9025L26.8571 56.3652C27.034 56.5425 27.3171 56.4716 27.7417 56.2587C28.1663 56.0104 28.5202 55.7621 28.8032 55.4784C29.1217 55.1591 29.4048 54.7689 29.6525 54.3433C29.9002 53.9176 29.9002 53.6338 29.7586 53.4564L24.3094 47.9937L29.8294 42.4601C29.9709 42.3182 29.9355 42.0344 29.6878 41.6088Z" fill="white"/>
    <path d="M31.2092 19.8998H23.3892V12.2379C23.3892 12.025 23.1769 11.8477 22.7169 11.7058C22.2569 11.5994 21.7969 11.5284 21.3369 11.5284C20.9123 11.5284 20.4877 11.5994 20.0277 11.7413C19.5677 11.8831 19.32 12.025 19.32 12.2379V19.8998H11.6061C11.3938 19.8998 11.1815 20.1481 11.0753 20.6093C10.9338 21.1059 10.863 21.5316 10.863 21.9572C10.863 22.3829 10.9338 22.8086 11.0753 23.2697C11.2169 23.7308 11.3938 23.9791 11.6061 23.9791H19.32V31.712C19.32 31.9604 19.5677 32.1377 20.0277 32.2441C20.523 32.386 20.9477 32.457 21.3369 32.457C21.7969 32.457 22.2569 32.386 22.7169 32.2441C23.1769 32.1022 23.3892 31.9249 23.3892 31.712V23.9791H31.2092C31.4569 23.9791 31.6338 23.7308 31.74 23.2697C31.8815 22.8086 31.9523 22.3829 31.9523 21.9572C31.9523 21.567 31.8815 21.1414 31.74 20.6448C31.6338 20.1481 31.4569 19.8998 31.2092 19.8998Z" fill="white"/>
    <path d="M47.6277 57.3939C49.1715 57.3939 50.423 56.1392 50.423 54.5916C50.423 53.0439 49.1715 51.7893 47.6277 51.7893C46.0838 51.7893 44.8323 53.0439 44.8323 54.5916C44.8323 56.1392 46.0838 57.3939 47.6277 57.3939Z" fill="white"/>
    <path d="M55.8724 46.1137H39.3124C39.0647 46.1137 38.8524 46.2911 38.7108 46.6458C38.5693 47.0005 38.4985 47.4617 38.4985 47.9937C38.4985 48.5968 38.5693 49.0224 38.7108 49.3772C38.8524 49.7319 39.0647 49.8738 39.3124 49.8738H55.8724C56.1201 49.8738 56.3324 49.6964 56.4739 49.3772C56.6154 49.0579 56.6862 48.5968 56.6862 47.9937C56.6862 47.4262 56.6154 47.0005 56.4739 46.6458C56.3324 46.2556 56.1554 46.1137 55.8724 46.1137Z" fill="white"/>
</svg>
