<svg width="29" height="29" viewBox="0 0 29 29" fill="none" xmlns="http://www.w3.org/2000/svg">
<path fill-rule="evenodd" clip-rule="evenodd" d="M14.5 0C6.49187 0 0 6.49187 0 14.5C0 22.5081 6.49187 29 14.5 29C22.5081 29 29 22.5081 29 14.5C29 6.49187 22.5081 0 14.5 0ZM11.312 6.81339C12.1369 6.77585 12.4005 6.76667 14.5007 6.76667H14.4983C16.5992 6.76667 16.8618 6.77585 17.6867 6.81339C18.51 6.85109 19.0723 6.98143 19.5653 7.17267C20.0744 7.37003 20.5046 7.63426 20.9348 8.06443C21.3649 8.49428 21.6292 8.92574 21.8273 9.43437C22.0174 9.92609 22.1479 10.4881 22.1866 11.3113C22.2237 12.1362 22.2333 12.3998 22.2333 14.5001C22.2333 16.6003 22.2237 16.8633 22.1866 17.6882C22.1479 18.5111 22.0174 19.0733 21.8273 19.5651C21.6292 20.0736 21.3649 20.5051 20.9348 20.9349C20.5051 21.3651 20.0743 21.63 19.5658 21.8275C19.0737 22.0187 18.5111 22.1491 17.6879 22.1868C16.863 22.2243 16.6002 22.2335 14.4998 22.2335C12.3997 22.2335 12.1362 22.2243 11.3113 22.1868C10.4882 22.1491 9.92609 22.0187 9.43405 21.8275C8.92574 21.63 8.49428 21.3651 8.06459 20.9349C7.63458 20.5051 7.37036 20.0736 7.17267 19.565C6.98159 19.0733 6.85125 18.5113 6.81339 17.688C6.77601 16.8631 6.76667 16.6003 6.76667 14.5001C6.76667 12.3998 6.77633 12.1361 6.81323 11.3112C6.85028 10.4882 6.98079 9.92609 7.17251 9.43421C7.37068 8.92574 7.6349 8.49428 8.06507 8.06443C8.49492 7.63442 8.92638 7.3702 9.43502 7.17267C9.92673 6.98143 10.4887 6.85109 11.312 6.81339Z" fill="#000FFF"/>
<path fill-rule="evenodd" clip-rule="evenodd" d="M13.807 8.16032C13.9418 8.16011 14.0867 8.16017 14.243 8.16024L14.5008 8.16032C16.5656 8.16032 16.8104 8.16773 17.6257 8.20479C18.3798 8.23926 18.789 8.36526 19.0616 8.47111C19.4225 8.61127 19.6798 8.77883 19.9503 9.0495C20.2209 9.32017 20.3885 9.57795 20.529 9.93884C20.6348 10.2111 20.761 10.6204 20.7953 11.3744C20.8324 12.1896 20.8404 12.4345 20.8404 14.4983C20.8404 16.5622 20.8324 16.8071 20.7953 17.6223C20.7608 18.3763 20.6348 18.7855 20.529 19.0578C20.3888 19.4187 20.2209 19.6757 19.9503 19.9462C19.6796 20.2169 19.4226 20.3844 19.0616 20.5246C18.7893 20.6309 18.3798 20.7566 17.6257 20.7911C16.8105 20.8281 16.5656 20.8362 14.5008 20.8362C12.4358 20.8362 12.1911 20.8281 11.3759 20.7911C10.6218 20.7563 10.2126 20.6303 9.93986 20.5244C9.57896 20.3843 9.32118 20.2167 9.05051 19.946C8.77984 19.6754 8.61229 19.4182 8.4718 19.0572C8.36595 18.7849 8.23979 18.3757 8.20548 17.6217C8.16842 16.8064 8.16101 16.5615 8.16101 14.4964C8.16101 12.4313 8.16842 12.1877 8.20548 11.3724C8.23996 10.6184 8.36595 10.2092 8.4718 9.93659C8.61197 9.5757 8.77984 9.31792 9.05051 9.04725C9.32118 8.77658 9.57896 8.60902 9.93986 8.46853C10.2125 8.36219 10.6218 8.23653 11.3759 8.20189C12.0893 8.16966 12.3657 8.16 13.807 8.15839V8.16032ZM18.6289 9.44444C18.1166 9.44444 17.7009 9.85963 17.7009 10.3721C17.7009 10.8845 18.1166 11.3001 18.6289 11.3001C19.1413 11.3001 19.5569 10.8845 19.5569 10.3721C19.5569 9.85979 19.1413 9.44412 18.6289 9.44412V9.44444ZM10.5295 14.5002C10.5295 12.307 12.3076 10.5288 14.5008 10.5287C16.694 10.5287 18.4717 12.3069 18.4717 14.5002C18.4717 16.6934 16.6942 18.4708 14.5009 18.4708C12.3077 18.4708 10.5295 16.6934 10.5295 14.5002Z" fill="#000FFF"/>
<path fill-rule="evenodd" clip-rule="evenodd" d="M14.5008 11.9222C15.9244 11.9222 17.0786 13.0763 17.0786 14.5C17.0786 15.9236 15.9244 17.0779 14.5008 17.0779C13.077 17.0779 11.923 15.9236 11.923 14.5C11.923 13.0763 13.077 11.9222 14.5008 11.9222V11.9222Z" fill="#000FFF"/>
</svg>
