<svg width="103" height="119" viewBox="0 0 103 119" fill="none" xmlns="http://www.w3.org/2000/svg">
<g clip-path="url(#clip0_5324_1938)">
<path d="M102.368 45.0355L82.5895 3.52557C81.5203 1.30398 79.3092 0 76.9766 0C76.0532 0 75.1542 0.21733 74.2309 0.651989L13.0966 30.8849C9.96218 32.4063 8.67438 36.2457 10.1809 39.3849L30.0325 80.8466C30.2026 81.1122 30.3484 81.4503 30.5184 81.6676V66.9375L24.2009 53.777L84.8978 23.3267L96.5609 47.7642L61.0613 65.3196V72.5156L99.4767 53.4872C102.611 51.9659 103.899 48.1264 102.392 45.0355H102.368ZM21.4552 47.9574L16.061 36.6321L76.8551 6.49574L82.0792 17.4347L21.4552 47.9332V47.9574Z" fill="#000FFF"/>
<path d="M57.9753 85.7245V60.949C57.9753 54.1634 52.5325 48.7061 45.7776 48.7061C39.0227 48.7061 33.5799 54.1876 33.5799 60.949V88.26C32.4379 87.5115 30.4941 85.9177 27.6026 82.7785L22.913 87.1734C29.3764 94.1038 33.5313 96.4944 36.8845 95.0938C39.2657 94.1279 40.0676 91.7373 40.019 89.9987V60.949C40.019 57.7615 42.6189 55.1535 45.8019 55.1535C48.985 55.1535 51.5849 57.7615 51.5849 60.949V86.2558L54.5979 112.529H26.7036L10.521 93.7174C2.74555 85.4348 8.47992 76.983 8.69861 76.645C8.7472 76.5967 8.7472 76.5484 8.7958 76.4759L17.6403 62.8083L12.2461 59.2828L3.4502 72.9504C0.267138 77.4419 -3.3047 88.4049 5.75853 98.0399L22.8159 117.817C23.399 118.517 24.3223 118.952 25.2457 118.952H58.2669C59.1902 118.952 60.0407 118.565 60.6481 117.865C61.2313 117.165 61.5715 116.247 61.45 115.378L57.9996 85.6762L57.9753 85.7245Z" fill="#000FFF"/>
</g>
<defs>
<clipPath id="clip0_5324_1938">
<rect width="103" height="119" fill="white"/>
</clipPath>
</defs>
</svg>
