<svg width="38" height="43" viewBox="0 0 38 43" fill="none" xmlns="http://www.w3.org/2000/svg">
    <g clip-path="url(#clip0)">
        <path d="M26.5132 42.1168C26.5045 42.1168 26.4957 42.1168 26.487 42.1168C26.05 42.1081 25.6568 41.8571 25.4645 41.4763L21.6279 33.7644L23.7166 32.743L26.5569 38.4556L28.5495 34.8117C28.7767 34.4049 29.2311 34.1625 29.6943 34.2145L34.0028 34.6559L31.1538 28.9087L33.2425 27.8874L37.0266 35.5041C37.2101 35.8763 37.1752 36.3264 36.9392 36.6726C36.6945 37.0188 36.2838 37.2006 35.8643 37.1573L30.2362 36.5774L27.5357 41.5109C27.326 41.8831 26.9327 42.1168 26.5132 42.1168Z" fill="white"/>
        <path d="M10.7476 42.1168C10.3194 42.1168 9.92611 41.8831 9.72511 41.5109L7.02466 36.5774L1.39654 37.1573C0.968314 37.2006 0.566305 37.0101 0.321604 36.6726C0.0769035 36.3264 0.0419462 35.8849 0.234211 35.5041L4.01833 27.8874L6.10703 28.9087L3.25801 34.6559L7.5665 34.2145C8.02968 34.1625 8.48412 34.4049 8.71135 34.8117L10.7039 38.4556L13.5442 32.743L15.6329 33.7644L11.8051 41.4763C11.6128 41.8658 11.2195 42.1081 10.7826 42.1168C10.7651 42.1168 10.7563 42.1168 10.7476 42.1168Z" fill="white"/>
        <path d="M18.6305 34.327C18.3683 34.327 18.1061 34.2404 17.8876 34.0673C17.8352 34.024 17.573 33.8163 17.2234 33.5134L17.0661 33.3662C16.7078 33.046 16.2621 32.6565 15.8514 32.1631C15.6504 31.9381 15.4406 31.6871 15.2571 31.462L15.0036 31.1418C14.9687 31.0899 14.9337 31.0466 14.9075 31.012C14.5492 31.1677 14.0598 31.3668 13.4917 31.5659C12.845 31.7736 12.1983 31.9208 11.6565 32.0333C11.3768 32.0939 11.1409 32.1285 10.9748 32.1458L10.8962 32.1545C10.7214 32.1804 10.6165 32.1804 10.6078 32.1804C10.5641 32.1804 10.5116 32.1804 10.4679 32.1718C9.73384 32.0852 9.57653 31.6351 9.22696 30.6571C9.06965 30.2503 8.89487 29.6271 8.72008 28.8395C8.59773 28.3374 8.53655 27.8181 8.48412 27.3248C7.97724 27.2815 7.45288 27.2122 6.92852 27.0911C6.15946 26.9266 5.53897 26.7535 5.09326 26.5891C4.63882 26.4246 4.30672 26.2948 4.30672 26.2948C3.81732 26.0957 3.52019 25.6023 3.5901 25.083L3.61632 24.858C3.6338 24.6935 3.66876 24.4598 3.72993 24.1742C3.85228 23.603 4.00085 22.9884 4.19311 22.3912C4.40286 21.794 4.6126 21.292 4.76117 20.9631C4.72621 20.9458 4.69999 20.9198 4.67378 20.9025L4.3242 20.6255C4.0795 20.4351 3.8348 20.2274 3.58136 20.011C3.25801 19.734 3.01331 19.5003 2.8123 19.2839C2.62004 19.0762 2.41903 18.8598 2.24425 18.6694C1.95585 18.3491 1.75484 18.0981 1.70241 18.0289C1.59754 17.9077 1.51014 17.7519 1.46645 17.5961C1.37032 17.2672 1.43149 16.9037 1.63249 16.6267C1.69367 16.5402 1.99081 16.1853 2.24425 15.8997L2.37534 15.7525C2.69869 15.3977 3.1007 14.9476 3.59884 14.5408C3.82606 14.3417 4.0795 14.134 4.30672 13.9522L4.63008 13.7012C4.68252 13.6666 4.72621 13.632 4.76117 13.606C4.6126 13.2598 4.4116 12.7751 4.20185 12.2038C3.99211 11.5633 3.84354 10.9228 3.72993 10.3862C3.66876 10.1092 3.6338 9.86689 3.61632 9.70244L3.5901 9.48605C3.52019 8.96673 3.81732 8.46472 4.30672 8.2743C4.30672 8.2743 4.63882 8.14447 5.11948 7.97136C5.53897 7.80691 6.15946 7.64246 6.95474 7.46935C7.46162 7.34818 7.98598 7.28759 8.48412 7.23566C8.51907 6.82886 8.58899 6.2576 8.72008 5.695C8.89487 4.91602 9.06091 4.31014 9.2357 3.86872C9.39301 3.41864 9.53284 3.08974 9.53284 3.08974C9.70762 2.65697 10.1358 2.37134 10.6078 2.37134C10.6078 2.37134 10.7476 2.38 10.9748 2.40596C11.1496 2.43193 11.3856 2.4579 11.674 2.52714C12.1634 2.631 12.8276 2.77814 13.4655 2.98587C14.0773 3.20226 14.5842 3.40133 14.9075 3.54847C14.9337 3.51385 14.9512 3.48788 14.9774 3.45326L15.2571 3.10705C15.4494 2.87335 15.6591 2.62235 15.8776 2.37134C16.166 2.04244 16.3932 1.80874 16.6117 1.60967C16.8214 1.41925 17.0399 1.22018 17.2322 1.04707C17.2409 1.03841 17.8614 0.501782 18.0187 0.406573C18.3508 0.198844 18.7703 0.172878 19.1286 0.33733C19.251 0.389262 19.3296 0.432539 20.0375 1.04707L20.2035 1.19421C20.5618 1.51446 21.0076 1.90395 21.4183 2.38865C21.6193 2.61369 21.8291 2.8647 22.0126 3.08974L22.266 3.40999C22.301 3.46192 22.3359 3.50519 22.3622 3.53982C22.7205 3.38402 23.2186 3.18495 23.7779 2.98587C24.4246 2.77814 25.0626 2.631 25.6132 2.51848C25.8928 2.4579 26.1288 2.42327 26.2948 2.40596L26.5221 2.38C26.8542 2.33672 27.1863 2.44058 27.431 2.65697C27.6669 2.8647 27.7281 2.99453 28.0514 3.90334C28.2088 4.31014 28.3835 4.93333 28.5583 5.72097C28.6807 6.22298 28.7418 6.7423 28.7943 7.23566C29.205 7.27028 29.7906 7.33952 30.3499 7.46935C31.1189 7.63381 31.7482 7.80691 32.1851 7.98002C32.6396 8.14447 32.9717 8.2743 32.9717 8.2743C33.4086 8.44741 33.697 8.87152 33.697 9.34757C33.697 9.34757 33.6883 9.48605 33.6621 9.71975C33.6446 9.8842 33.6096 10.1179 33.5397 10.4035C33.4261 10.9315 33.2776 11.572 33.0765 12.1779C32.8668 12.7751 32.6571 13.2771 32.5085 13.606C32.5435 13.632 32.5784 13.6579 32.6134 13.6753C32.7357 13.7705 32.8493 13.857 32.9629 13.9436C33.1989 14.1253 33.4436 14.3331 33.697 14.5494C33.9417 14.7572 34.2214 15.0082 34.4661 15.2765C34.6671 15.4842 34.8594 15.7006 35.0342 15.891C35.375 16.2719 35.6022 16.5488 35.6022 16.5488C35.943 16.9729 35.943 17.5702 35.6022 17.9943C35.6022 17.9943 35.375 18.2713 35.0342 18.6607L34.9031 18.8079C34.5797 19.1628 34.1777 19.6128 33.6883 20.0196C33.4611 20.2187 33.2076 20.4264 32.9717 20.6082L32.6483 20.8592C32.6046 20.8938 32.5609 20.9198 32.5172 20.9544C32.6745 21.3006 32.8755 21.7853 33.0765 22.3566C33.2863 22.9884 33.4261 23.603 33.5485 24.1742C33.6096 24.4512 33.6446 24.6849 33.6621 24.858L33.6883 25.0744C33.7582 25.5937 33.4611 26.0957 32.9717 26.2861C32.9717 26.2861 32.6396 26.416 32.1589 26.5891C31.7482 26.7449 31.1189 26.918 30.3237 27.0911C29.808 27.2122 29.2749 27.2815 28.7943 27.3248C28.7506 27.8268 28.6807 28.3461 28.5496 28.8654C28.3835 29.6271 28.2087 30.2503 28.034 30.6831C27.7281 31.5313 27.6844 31.5919 27.597 31.7044C27.3785 31.9987 27.0289 32.1804 26.6532 32.1804C26.6532 32.1804 26.5133 32.1718 26.2774 32.1458C26.1113 32.1285 25.8754 32.0939 25.587 32.0246C25.0539 31.9121 24.4159 31.765 23.7954 31.5659C23.1836 31.3495 22.6768 31.1504 22.3534 31.012C22.3272 31.0466 22.3097 31.0725 22.2835 31.1072L22.0126 31.4447C21.8116 31.6871 21.6018 31.9381 21.3833 32.1804C21.1212 32.4834 20.8765 32.7344 20.6492 32.9421C20.4395 33.1325 20.221 33.3316 20.0288 33.496C19.6704 33.799 19.417 34.0154 19.3646 34.05C19.1548 34.2318 18.8926 34.327 18.6305 34.327ZM15.2047 28.424C15.3008 28.424 15.4057 28.4327 15.5018 28.4586L15.6678 28.5019C15.9562 28.5798 16.2097 28.7616 16.367 29.0126C16.4282 29.1164 16.533 29.2809 16.6729 29.4886C16.7515 29.6011 16.7952 29.679 16.8476 29.7483L17.0661 30.0252C17.2234 30.2157 17.407 30.4407 17.608 30.6571C17.9313 31.0379 18.2896 31.3582 18.6042 31.6351L18.613 31.6438C18.7528 31.5226 18.9014 31.3841 19.0587 31.2456C19.2335 31.0899 19.4083 30.9081 19.618 30.6657C19.819 30.432 20.0113 30.2157 20.1773 30.0079L20.4133 29.705C20.4308 29.6704 20.4745 29.6098 20.5182 29.5492L20.5706 29.4713C20.7017 29.2722 20.8066 29.1078 20.8677 29.0039C21.025 28.7442 21.2785 28.5625 21.5756 28.4846L21.7242 28.4413C22.0213 28.3634 22.3359 28.398 22.5981 28.5452C22.703 28.6058 22.8778 28.701 23.105 28.8135C23.4895 28.9866 24.0226 29.1943 24.512 29.3674C24.9402 29.5059 25.4384 29.6184 25.8754 29.7136C25.9715 29.4453 26.0938 29.0212 26.2424 28.3288C26.3822 27.7662 26.4259 27.1603 26.4521 26.8314C26.4696 26.5804 26.4871 26.3813 26.4871 26.2688C26.5046 25.9832 26.6182 25.7149 26.8192 25.5158L26.8979 25.4292C27.1076 25.2302 27.4135 25.0657 27.7019 25.0571C27.8155 25.0484 28.0165 25.0398 28.2699 25.0224C28.7331 24.9878 29.2662 24.9359 29.7469 24.8147C30.481 24.6589 30.9179 24.5291 31.1714 24.4425C31.0665 23.9838 30.9529 23.5077 30.8043 23.0577C30.647 22.6076 30.4285 22.0796 30.2363 21.6382C30.1401 21.4564 30.044 21.2833 29.9916 21.1795C29.843 20.9198 29.808 20.6169 29.8867 20.3312L29.9391 20.1495C30.0178 19.8638 30.2013 19.6215 30.4548 19.4743C30.5596 19.4138 30.7257 19.3099 30.9354 19.1714L30.9966 19.1368C31.0578 19.0935 31.1277 19.0502 31.1976 18.9983L31.4773 18.7819C31.687 18.6175 31.9055 18.4357 32.1327 18.2453C32.5172 17.925 32.8406 17.5615 33.129 17.2499C33.0066 17.1114 32.8668 16.9643 32.7182 16.8085C32.5347 16.6094 32.3075 16.4103 32.1327 16.2546C31.9055 16.0641 31.687 15.8737 31.4773 15.7093C31.3724 15.6314 31.2762 15.5535 31.1801 15.4756C31.1277 15.4409 31.0578 15.389 30.9879 15.3457C30.7344 15.1813 30.5684 15.0774 30.4635 15.0168C30.2101 14.861 30.0265 14.6187 29.9479 14.3331L29.8954 14.16C29.8168 13.8743 29.8605 13.5714 30.0003 13.3117C30.0615 13.2079 30.1489 13.0348 30.2712 12.8097C30.3674 12.602 30.5946 12.0654 30.8305 11.4162C30.9704 10.9921 31.084 10.4987 31.1801 10.066C30.9092 9.97075 30.481 9.84958 29.7818 9.70244C29.2575 9.58126 28.7331 9.52933 28.2699 9.49471C28.0165 9.4774 27.8067 9.46009 27.6931 9.46009C27.4047 9.44278 27.1338 9.3216 26.9328 9.12253L26.8192 9.01001C26.6182 8.80228 26.4958 8.53396 26.4871 8.24834C26.4784 8.13582 26.4696 7.9454 26.4521 7.68574C26.4259 7.35683 26.3735 6.75096 26.2424 6.22298C26.1113 5.62576 25.9802 5.1324 25.8666 4.81216C25.4209 4.90736 24.9315 5.02854 24.4771 5.17568C23.8566 5.39206 23.306 5.62576 23.0438 5.74693C22.8603 5.84214 22.6855 5.93735 22.5719 5.99794C22.3097 6.13643 22.0038 6.1797 21.7154 6.1018L21.6193 6.07584C21.3222 6.0066 21.0076 5.79887 20.8502 5.53921C20.7891 5.43534 20.6842 5.27089 20.5444 5.06316L20.4919 4.98526C20.457 4.92467 20.4133 4.86409 20.3696 4.8035L20.1511 4.53518C19.9938 4.33611 19.8015 4.11973 19.6093 3.89469C19.2859 3.51385 18.9276 3.20226 18.613 2.91663L18.6042 2.90797C18.4644 3.02915 18.3158 3.16764 18.1673 3.30612C17.9575 3.49654 17.7478 3.73023 17.608 3.88603C17.407 4.11107 17.2234 4.32745 17.0574 4.53518L16.8127 4.84678C16.7952 4.87274 16.7602 4.93333 16.7166 4.98526L16.6554 5.08047C16.5243 5.27955 16.4194 5.444 16.3582 5.54786C16.2009 5.79887 15.9475 5.98928 15.6591 6.05853L15.493 6.1018C15.2047 6.1797 14.8988 6.13643 14.6366 5.99794C14.5317 5.93735 14.3569 5.84214 14.121 5.72962C13.7364 5.55652 13.2033 5.34879 12.7052 5.17568C12.2595 5.03719 11.7614 4.91602 11.3419 4.82947C11.2457 5.09778 11.1234 5.51324 10.9748 6.21432C10.8437 6.76827 10.7913 7.3828 10.7651 7.70305C10.7476 7.95405 10.7301 8.15313 10.7301 8.26565C10.7126 8.55127 10.599 8.81959 10.398 9.01866L10.3106 9.10522C10.1009 9.30429 9.79502 9.46009 9.50662 9.4774C9.39301 9.48605 9.192 9.49471 8.92982 9.51202C8.60647 9.53799 7.99472 9.58992 7.45288 9.71975C6.84987 9.84958 6.36046 9.97941 6.02837 10.0919C6.1245 10.542 6.24685 11.0267 6.38668 11.4768C6.54399 11.9355 6.76247 12.4548 6.95474 12.8963C7.05087 13.078 7.147 13.2511 7.19944 13.355C7.34801 13.6147 7.38296 13.9263 7.30431 14.2205L7.26061 14.385C7.18196 14.6706 6.99843 14.913 6.74499 15.0688C6.64012 15.1294 6.47407 15.2332 6.26433 15.3717L6.17694 15.4323C6.1245 15.4669 6.06333 15.5102 6.00215 15.5535L5.72249 15.7785C5.53023 15.9343 5.30301 16.1161 5.08452 16.3151C4.69999 16.6354 4.37664 16.9989 4.08824 17.3105C4.21059 17.449 4.35042 17.5961 4.49025 17.7519C4.68252 17.9597 4.91848 18.1674 5.07578 18.3059C5.30301 18.5049 5.52149 18.6867 5.73123 18.8512L6.03711 19.0935C6.06333 19.1108 6.1245 19.1541 6.19442 19.1974L6.27307 19.2493C6.48281 19.3878 6.64886 19.4917 6.74499 19.5522C6.99843 19.708 7.18196 19.9504 7.26061 20.236L7.30431 20.4005C7.38296 20.6948 7.34801 21.0063 7.19944 21.266C7.147 21.3612 7.05087 21.5343 6.946 21.7421C6.82365 22.0104 6.59643 22.5297 6.37794 23.1615C6.23811 23.5943 6.1245 24.079 6.02837 24.5118C6.29929 24.607 6.72752 24.7282 7.42666 24.8753C7.99472 25.0138 8.60647 25.0571 8.93856 25.083C9.192 25.1003 9.39301 25.1177 9.51536 25.1177C9.80375 25.135 10.0747 25.2475 10.2844 25.4552L10.3281 25.4985L10.3893 25.5591C10.599 25.7668 10.7214 26.0351 10.7301 26.3294C10.7389 26.4419 10.7476 26.641 10.7651 26.892C10.7913 27.2122 10.8437 27.8181 10.9748 28.3548C11.1321 29.0905 11.2632 29.5146 11.3506 29.7656C11.7963 29.6704 12.2857 29.5492 12.7402 29.4021C13.3694 29.1857 13.9112 28.952 14.1734 28.8308C14.3569 28.7356 14.5317 28.6404 14.6366 28.5885C14.8201 28.4673 15.0124 28.424 15.2047 28.424Z" fill="white"/>
        <path d="M18.6305 26.5544C13.4656 26.5544 9.26196 22.3912 9.26196 17.2759C9.26196 12.1605 13.4656 7.99731 18.6305 7.99731C23.7954 7.99731 27.9991 12.1605 27.9991 17.2759C27.9991 22.3912 23.7954 26.5544 18.6305 26.5544ZM18.6305 10.291C14.7503 10.291 11.5866 13.4242 11.5866 17.2672C11.5866 21.1102 14.7503 24.2434 18.6305 24.2434C22.5108 24.2434 25.6744 21.1102 25.6744 17.2672C25.6744 13.4242 22.5108 10.291 18.6305 10.291Z" fill="white"/>
    </g>
    <defs>
        <clipPath id="clip0">
            <rect width="37.0285" height="41.9006" fill="white" transform="translate(0.111816 0.216125)"/>
        </clipPath>
    </defs>
</svg>
