<svg width="82" height="76" viewBox="0 0 82 76" fill="none" xmlns="http://www.w3.org/2000/svg">
    <path d="M4.72009 63.9133V5.67711C4.72009 5.12771 5.18284 4.66988 5.73815 4.66988H56.5485C57.1038 4.66988 57.5666 5.12771 57.5666 5.67711V31.7735L62.1016 27.2867L62.1941 27.1952V5.67711C62.1941 2.56386 59.6027 0 56.456 0H5.73815C2.59142 0 0 2.56386 0 5.67711V64.0048C0 67.0265 2.59142 69.5904 5.73815 69.5904H31.8375L32.763 64.9205H5.73815C5.18284 65.012 4.72009 64.4627 4.72009 63.9133Z" fill="white"/>
    <path d="M81.2597 42.853L67.5622 29.3012C66.7292 28.3855 65.1559 28.4771 64.2304 29.3012L38.2236 55.0313C38.2236 55.0313 38.2236 55.0313 38.2236 55.1229L38.131 55.2145C38.0385 55.306 37.9459 55.3976 37.8534 55.5807C37.8534 55.6723 37.7608 55.6723 37.7608 55.7639C37.6683 55.947 37.5757 56.1301 37.5757 56.3133L34.1513 73.253C33.9662 73.9855 34.2439 74.8096 34.7992 75.359C35.262 75.8169 35.8173 76 36.4651 76C36.6502 76 36.7428 76 36.9279 76L54.0498 72.6121C54.2349 72.6121 54.42 72.5205 54.6051 72.4289C54.6976 72.4289 54.6976 72.3374 54.7902 72.3374C54.8827 72.2458 55.0678 72.1542 55.1604 72.0626L55.2529 71.9711C55.2529 71.9711 55.2529 71.9711 55.3455 71.9711L81.3523 46.241C81.815 45.7831 82.0001 45.2337 82.0001 44.5928C82.0001 43.9518 81.7225 43.3108 81.2597 42.853ZM65.8963 34.2458L69.4132 37.7253L46.7383 60.159L43.2213 56.6795L65.8963 34.2458ZM39.4267 70.6892L41.2778 61.3494L42.9437 62.9976L48.8669 68.8578L39.4267 70.6892ZM53.587 67.0265L50.0701 63.547L72.745 41.1133L76.262 44.5928L53.587 67.0265Z" fill="white"/>
    <path d="M49.7924 30.9494C49.7924 29.6675 48.7743 28.6602 47.4786 28.6602H14.8082C13.5124 28.6602 12.4944 29.6675 12.4944 30.9494C12.4944 32.2313 13.5124 33.2386 14.8082 33.2386H47.4786C48.7743 33.2386 49.7924 32.2313 49.7924 30.9494Z" fill="white"/>
    <path d="M47.4786 15.7494H14.8082C13.5124 15.7494 12.4944 16.7566 12.4944 18.0385C12.4944 19.3205 13.5124 20.3277 14.8082 20.3277H47.4786C48.7743 20.3277 49.7924 19.3205 49.7924 18.0385C49.7924 16.8482 48.7743 15.7494 47.4786 15.7494Z" fill="white"/>
    <path d="M14.8082 43.4024C13.5124 43.4024 12.4944 44.4096 12.4944 45.6916C12.4944 46.9735 13.5124 47.9807 14.8082 47.9807H32.4854C33.7811 47.9807 34.7991 46.9735 34.7991 45.6916C34.7991 44.4096 33.7811 43.4024 32.4854 43.4024H14.8082Z" fill="white"/>
</svg>
