<svg width="38" height="42" viewBox="0 0 38 42" fill="none" xmlns="http://www.w3.org/2000/svg">
    <path d="M13.1566 28.2409C14.1344 28.2409 14.927 27.4519 14.927 26.4786C14.927 25.5053 14.1344 24.7163 13.1566 24.7163C12.1789 24.7163 11.3862 25.5053 11.3862 26.4786C11.3862 27.4519 12.1789 28.2409 13.1566 28.2409Z" fill="white"/>
    <path d="M24.8685 28.2409C25.8463 28.2409 26.6389 27.4519 26.6389 26.4786C26.6389 25.5053 25.8463 24.7163 24.8685 24.7163C23.8908 24.7163 23.0981 25.5053 23.0981 26.4786C23.0981 27.4519 23.8908 28.2409 24.8685 28.2409Z" fill="white"/>
    <path d="M35.5049 16.9215C35.1372 16.6639 34.7287 16.5013 34.3201 16.447C34.2248 9.00467 27.9875 2.91793 20.1025 2.37569V1.77921C20.1025 1.16918 19.5986 0.667603 18.9858 0.667603C18.3729 0.667603 17.8691 1.16918 17.8691 1.77921V2.37569C9.99761 2.91793 3.74676 9.00467 3.66505 16.447C3.25649 16.5148 2.84794 16.6639 2.48024 16.9215C0.873271 18.0331 0.137876 20.6495 0.641758 23.4963C1.17288 25.9093 2.76623 27.4547 5.21755 28.0105C6.23893 35.5613 11.5637 41.5803 19.0266 41.5803C26.5031 41.5803 31.8143 35.5613 32.8357 27.9969C35.2462 27.4276 36.8259 25.8686 37.3706 23.442C37.8473 20.663 37.0983 18.0331 35.5049 16.9215ZM6.74281 20.5139C6.74281 19.8768 10.556 17.762 18.9858 17.762C27.4156 17.762 31.2287 19.8768 31.2287 20.5139C31.2287 20.5952 30.8883 21.1646 29.2541 21.8017C28.4642 22.1 26.9389 21.5442 25.3183 20.9206C23.4526 20.1886 21.3281 19.3616 18.9858 19.3616C16.6434 19.3616 14.5325 20.1886 12.6532 20.9206C11.0462 21.5442 9.50735 22.1135 8.71748 21.8017C7.09689 21.1646 6.74281 20.5952 6.74281 20.5139ZM18.9858 4.57179C26.2035 4.57179 32.0731 9.98072 32.0731 16.6097C32.0731 16.7453 32.0594 16.8808 32.0594 17.0164C31.5419 17.2333 31.0108 17.3011 30.5614 17.2875C27.7152 16.0403 23.2619 15.4574 18.9858 15.4574C14.7232 15.4574 10.2564 16.0403 7.41011 17.2875C6.94709 17.3011 6.41597 17.2333 5.91209 17.0164C5.91209 16.8808 5.89847 16.7453 5.89847 16.6097C5.89847 9.96717 11.768 4.57179 18.9858 4.57179ZM35.1644 23.0354C35.001 23.7809 34.4971 26.0448 30.6159 26.0448V27.6716C29.7443 34.4904 25.0596 39.3842 19.0266 39.3842C12.8983 39.3842 8.14551 34.3277 7.38287 27.3462V26.0448C3.48801 26.0448 2.99774 23.7809 2.83432 23.0896C2.43939 20.8257 3.13393 19.1989 3.76038 18.7652C3.78761 18.7516 3.81485 18.738 3.82847 18.7245C3.89656 19.1854 4.00551 19.6327 4.12807 20.0665L4.9588 24.7434L7.16498 24.3639L7.0288 23.5776C7.30116 23.7132 7.58715 23.8352 7.90037 23.9572C8.32255 24.1199 8.79919 24.2012 9.30307 24.2012C10.6104 24.2012 12.0268 23.6454 13.5112 23.0625C15.1862 22.4118 17.0928 21.6662 18.9994 21.6662C20.906 21.6662 22.8125 22.4118 24.4876 23.0625C25.9856 23.6454 27.4019 24.2012 28.6957 24.2012C29.1996 24.2012 29.6626 24.1199 30.0984 23.9572C30.4116 23.8352 30.6976 23.7132 30.97 23.5776L30.8338 24.3639L33.04 24.7434L33.8707 20.053C33.9933 19.6192 34.0886 19.1718 34.1703 18.7109C34.1975 18.7245 34.2248 18.738 34.2384 18.7516C34.8512 19.1854 35.5458 20.8121 35.1644 23.0354Z" fill="white"/>
</svg>
