<svg width="48" height="48" viewBox="0 0 48 48" fill="none" xmlns="http://www.w3.org/2000/svg">
<g clip-path="url(#clip0_4163_14)">
<path d="M23.9998 48C21.9893 48 19.9816 47.2361 18.4512 45.7056L8.27783 35.531H11.5716C13.1806 35.531 14.6913 34.9047 15.8286 33.7674L22.8149 26.7802C23.1968 26.3983 23.7359 26.1793 24.2919 26.1793C24.8507 26.1793 25.387 26.3983 25.7689 26.7802L32.7299 33.7421C33.8672 34.8795 35.3779 35.5057 36.9869 35.5057H39.7471L29.5485 45.7056C28.0181 47.2361 26.0104 48 23.9998 48ZM12.1023 37.1037L19.5772 44.5794C22.0174 47.0171 25.9823 47.0171 28.4224 44.5794L35.9704 37.0307C34.3221 36.8116 32.8001 36.0646 31.6039 34.8682L24.6429 27.9064C24.5586 27.8221 24.4295 27.7716 24.2919 27.7716C24.1543 27.7716 24.0251 27.8193 23.9409 27.9064L16.9546 34.8935C15.6432 36.205 13.936 36.9801 12.1023 37.1037Z" fill="#000FFF"/>
<path d="M24.2919 21.8348C23.7331 21.8348 23.208 21.6185 22.8149 21.2226L15.8286 14.2354C14.6913 13.0981 13.1778 12.4718 11.5716 12.4718H8.27783L18.4512 2.29721C19.9339 0.814416 21.9023 0 23.9998 0C26.0974 0 28.0658 0.817225 29.5485 2.29721L39.7471 12.4971H36.9869C35.3779 12.4971 33.8672 13.1233 32.7299 14.2607L25.7689 21.2226C25.3758 21.6157 24.8507 21.8348 24.2919 21.8348ZM12.1023 10.8991C13.936 11.0255 15.6404 11.7978 16.9546 13.1093L23.9409 20.0964C24.0335 20.1891 24.1599 20.2425 24.2919 20.2425C24.4238 20.2425 24.5502 20.1919 24.6429 20.0964L31.6039 13.1346C32.8001 11.9382 34.3221 11.1912 35.9704 10.9721L28.4224 3.42336C27.2403 2.24105 25.6706 1.59232 23.9998 1.59232C22.3291 1.59232 20.7594 2.24386 19.5772 3.42336L12.1023 10.8991Z" fill="#000FFF"/>
<path d="M8.02539 35.2783L2.29988 29.5521C0.81725 28.0693 0.00292969 26.1006 0.00292969 24.0028C0.00292969 21.905 0.820058 19.9363 2.29988 18.4535L8.0282 12.7245L8.50837 12.9071C8.56453 12.9267 8.58419 12.9296 8.58699 12.9296H11.5747C13.0405 12.9296 14.4754 13.5249 15.5115 14.5612L22.4978 21.5483C22.978 22.0286 23.6154 22.2925 24.2978 22.2925C24.9801 22.2925 25.6175 22.0286 26.0977 21.5483L33.0587 14.5865C34.0949 13.5502 35.527 12.9548 36.9927 12.9548H39.4217C39.4441 12.9548 39.4722 12.9492 39.5059 12.9352L39.9945 12.7386L45.7088 18.4535C47.1914 19.9363 48.0057 21.905 48.0057 24.0028C48.0057 26.1006 47.1886 28.0693 45.7088 29.5521L39.9945 35.267L39.5059 35.0733C39.475 35.0592 39.4441 35.0536 39.4217 35.0536H36.9927C35.527 35.0536 34.0921 34.4582 33.0559 33.422L26.0949 26.4629C25.6428 26.008 24.9857 25.7496 24.295 25.7496C23.6042 25.7496 22.9471 26.0108 22.495 26.4629L15.5087 33.45C14.4726 34.4863 13.0377 35.0817 11.5747 35.0817H8.58699C8.58699 35.0817 8.56453 35.0817 8.50837 35.1041L8.0282 35.2867L8.02539 35.2783ZM8.4859 14.5163L3.42588 19.5769C2.24372 20.7592 1.59507 22.329 1.59507 24C1.59507 25.671 2.24652 27.2408 3.42588 28.4231L8.4859 33.4837C8.5196 33.4837 8.55049 33.4809 8.58419 33.4809H11.5719C12.6193 33.4809 13.6414 33.0569 14.3827 32.3155L21.369 25.3283C22.1188 24.5785 23.1858 24.1488 24.295 24.1488C25.4041 24.1488 26.4712 24.5785 27.2209 25.3283L34.1819 32.2874C34.9204 33.0288 35.9454 33.4528 36.9927 33.4528H39.4217C39.461 33.4528 39.5031 33.4528 39.5424 33.4585L44.58 28.4203C45.7621 27.238 46.4108 25.6681 46.4108 23.9972C46.4108 22.3262 45.7593 20.7564 44.58 19.5741L39.5424 14.5359C39.5031 14.5387 39.461 14.5415 39.4217 14.5415H36.9927C35.9454 14.5415 34.9232 14.9656 34.1847 15.7042L27.2237 22.666C26.4431 23.4468 25.4041 23.8764 24.2978 23.8764C23.1914 23.8764 22.1525 23.4468 21.3718 22.666L14.3855 15.6789C13.647 14.9403 12.6221 14.5135 11.5747 14.5135H8.58699C8.5533 14.5135 8.52241 14.5135 8.48871 14.5106L8.4859 14.5163Z" fill="#000FFF"/>
</g>
<defs>
<clipPath id="clip0_4163_14">
<rect width="48" height="48" fill="white"/>
</clipPath>
</defs>
</svg>
