<svg width="122" height="41" viewBox="0 0 122 41" fill="none" xmlns="http://www.w3.org/2000/svg">
<g clip-path="url(#clip0)">
<path d="M0 20.4867C0 7.41298 7.47526 0 19.4681 0C29.8283 0 37.644 6.80886 37.6869 16.6416H26.6294C26.3584 12.1391 23.4469 9.14523 19.4515 9.14523C14.7324 9.14523 11.7582 13.3741 11.7582 20.47C11.7582 27.6393 14.7324 31.8681 19.5077 31.8681C23.4734 31.8681 26.3617 28.931 26.712 24.345H37.753C37.7001 34.2312 30.0596 41.0134 19.4813 41.0134C7.46204 41 0 33.5603 0 20.4867Z" fill="white"/>
<path d="M58.8736 0.687561C70.7705 0.687561 77.7699 7.52646 77.7699 20.213C77.7699 32.8995 70.754 40.3158 58.8736 40.3158H42.0989V0.687561H58.8736ZM53.6257 31.0604H57.2411C63.0045 31.0604 66.025 27.5158 66.025 20.213C66.025 13.5376 62.7632 9.94293 57.2411 9.94293H53.6257V31.0604Z" fill="white"/>
<path d="M82.2676 40.3158V0.687561H109.839V9.94293H93.7944V17.5495H108.315V26.2842H93.7944V40.3024L82.2676 40.3158Z" fill="white"/>
<path d="M110.688 34.9888C110.688 33.8594 111.02 32.7552 111.641 31.8161C112.262 30.877 113.145 30.145 114.179 29.7128C115.212 29.2806 116.349 29.1675 117.445 29.3878C118.542 29.6082 119.55 30.1521 120.341 30.9507C121.131 31.7494 121.67 32.7669 121.888 33.8747C122.106 34.9825 121.994 36.1307 121.566 37.1743C121.138 38.2178 120.414 39.1097 119.484 39.7372C118.554 40.3647 117.461 40.6996 116.342 40.6996C115.6 40.7 114.864 40.5526 114.178 40.2658C113.492 39.979 112.868 39.5583 112.343 39.0279C111.818 38.4976 111.402 37.8678 111.118 37.1748C110.834 36.4817 110.688 35.7389 110.688 34.9888Z" fill="white"/>
</g>
<defs>
<clipPath id="clip0">
<rect width="122" height="41" fill="white"/>
</clipPath>
</defs>
</svg>
